STARTFONT 2.1
COMMENT
COMMENT Converted from OpenType font "Q:\font stuff\winfont\Nanosecond Thin BRK.ttf" by "otf2bdf 3.0".
COMMENT
FONT -FreeType-Nanosecond Thin BRK-Medium-R-Normal--16-160-72-72-P-59-ISO10646-1
SIZE 16 72 72
FONTBOUNDINGBOX 11 16 0 -3
STARTPROPERTIES 19
FOUNDRY "FreeType"
FAMILY_NAME "Nanosecond Thin BRK"
WEIGHT_NAME "Medium"
SLANT "R"
SETWIDTH_NAME "Normal"
ADD_STYLE_NAME ""
PIXEL_SIZE 16
POINT_SIZE 160
RESOLUTION_X 72
RESOLUTION_Y 72
SPACING "P"
AVERAGE_WIDTH 59
CHARSET_REGISTRY "ISO10646"
CHARSET_ENCODING "1"
FONT_ASCENT 13
FONT_DESCENT 2
COPYRIGHT "ÆNIGMA FONTS   [e-mail]  kentpw@norwich.net"
_OTF_FONTFILE "Q:\font stuff\winfont\Nanosecond Thin BRK.ttf"
_OTF_PSNAME "NanosecondThinBRK"
ENDPROPERTIES
CHARS 99
STARTCHAR 0020
ENCODING 32
SWIDTH 437 0
DWIDTH 7 0
BBX 0 0 0 0
BITMAP
ENDCHAR
STARTCHAR 0021
ENCODING 33
SWIDTH 125 0
DWIDTH 2 0
BBX 1 11 0 0
BITMAP
80
80
80
80
80
80
80
80
00
00
80
ENDCHAR
STARTCHAR 0022
ENCODING 34
SWIDTH 250 0
DWIDTH 4 0
BBX 4 3 0 7
BITMAP
90
90
90
ENDCHAR
STARTCHAR 0023
ENCODING 35
SWIDTH 500 0
DWIDTH 8 0
BBX 8 11 0 0
BITMAP
24
24
FF
24
24
24
24
24
FF
24
24
ENDCHAR
STARTCHAR 0024
ENCODING 36
SWIDTH 437 0
DWIDTH 7 0
BBX 6 16 0 -3
BITMAP
10
10
38
4C
84
80
C0
78
0C
04
84
84
78
10
10
10
ENDCHAR
STARTCHAR 0025
ENCODING 37
SWIDTH 437 0
DWIDTH 7 0
BBX 6 11 0 0
BITMAP
74
94
F8
08
10
30
20
40
5C
94
9C
ENDCHAR
STARTCHAR 0026
ENCODING 38
SWIDTH 437 0
DWIDTH 7 0
BBX 6 16 0 -3
BITMAP
10
10
18
6C
84
80
C0
70
40
80
84
84
78
10
10
10
ENDCHAR
STARTCHAR 0027
ENCODING 39
SWIDTH 125 0
DWIDTH 2 0
BBX 1 3 0 8
BITMAP
80
80
80
ENDCHAR
STARTCHAR 0028
ENCODING 40
SWIDTH 250 0
DWIDTH 4 0
BBX 4 11 0 0
BITMAP
70
C0
80
80
80
80
80
80
80
C0
70
ENDCHAR
STARTCHAR 0029
ENCODING 41
SWIDTH 250 0
DWIDTH 4 0
BBX 4 11 0 0
BITMAP
E0
30
10
10
10
10
10
10
10
30
E0
ENDCHAR
STARTCHAR 002A
ENCODING 42
SWIDTH 375 0
DWIDTH 6 0
BBX 5 5 1 5
BITMAP
20
20
F8
70
50
ENDCHAR
STARTCHAR 002B
ENCODING 43
SWIDTH 437 0
DWIDTH 7 0
BBX 7 5 0 3
BITMAP
10
10
FE
10
10
ENDCHAR
STARTCHAR 002C
ENCODING 44
SWIDTH 125 0
DWIDTH 2 0
BBX 1 4 0 -3
BITMAP
80
80
80
80
ENDCHAR
STARTCHAR 002D
ENCODING 45
SWIDTH 437 0
DWIDTH 7 0
BBX 6 1 0 5
BITMAP
FC
ENDCHAR
STARTCHAR 002E
ENCODING 46
SWIDTH 125 0
DWIDTH 2 0
BBX 1 1 0 0
BITMAP
80
ENDCHAR
STARTCHAR 002F
ENCODING 47
SWIDTH 437 0
DWIDTH 7 0
BBX 6 11 0 0
BITMAP
04
04
04
08
08
10
20
20
40
40
80
ENDCHAR
STARTCHAR 0030
ENCODING 48
SWIDTH 437 0
DWIDTH 7 0
BBX 6 11 0 0
BITMAP
78
CC
84
84
84
84
84
84
84
CC
78
ENDCHAR
STARTCHAR 0031
ENCODING 49
SWIDTH 125 0
DWIDTH 2 0
BBX 1 11 0 0
BITMAP
80
80
80
80
80
80
80
80
80
80
80
ENDCHAR
STARTCHAR 0032
ENCODING 50
SWIDTH 437 0
DWIDTH 7 0
BBX 6 11 0 0
BITMAP
78
CC
84
84
0C
78
C0
80
80
80
FC
ENDCHAR
STARTCHAR 0033
ENCODING 51
SWIDTH 437 0
DWIDTH 7 0
BBX 6 11 0 0
BITMAP
78
CC
84
84
0C
38
0C
84
84
CC
78
ENDCHAR
STARTCHAR 0034
ENCODING 52
SWIDTH 437 0
DWIDTH 7 0
BBX 6 11 0 0
BITMAP
84
84
84
84
84
FC
04
04
04
04
04
ENDCHAR
STARTCHAR 0035
ENCODING 53
SWIDTH 437 0
DWIDTH 7 0
BBX 6 11 0 0
BITMAP
FC
80
80
80
80
F8
0C
04
04
0C
F8
ENDCHAR
STARTCHAR 0036
ENCODING 54
SWIDTH 437 0
DWIDTH 7 0
BBX 6 11 0 0
BITMAP
78
CC
84
84
80
F8
8C
84
84
CC
78
ENDCHAR
STARTCHAR 0037
ENCODING 55
SWIDTH 437 0
DWIDTH 7 0
BBX 6 11 0 0
BITMAP
FC
04
04
04
08
08
08
08
10
10
10
ENDCHAR
STARTCHAR 0038
ENCODING 56
SWIDTH 437 0
DWIDTH 7 0
BBX 6 11 0 0
BITMAP
78
CC
84
84
CC
78
CC
84
84
CC
78
ENDCHAR
STARTCHAR 0039
ENCODING 57
SWIDTH 437 0
DWIDTH 7 0
BBX 6 11 0 0
BITMAP
78
CC
84
84
C4
7C
04
04
04
04
04
ENDCHAR
STARTCHAR 003A
ENCODING 58
SWIDTH 125 0
DWIDTH 2 0
BBX 1 8 0 0
BITMAP
80
00
00
00
00
00
00
80
ENDCHAR
STARTCHAR 003B
ENCODING 59
SWIDTH 125 0
DWIDTH 2 0
BBX 1 11 0 -3
BITMAP
80
00
00
00
00
00
00
00
80
80
80
ENDCHAR
STARTCHAR 003C
ENCODING 60
SWIDTH 437 0
DWIDTH 7 0
BBX 6 7 0 2
BITMAP
0C
10
20
C0
20
10
0C
ENDCHAR
STARTCHAR 003D
ENCODING 61
SWIDTH 437 0
DWIDTH 7 0
BBX 6 5 0 3
BITMAP
FC
00
00
00
FC
ENDCHAR
STARTCHAR 003E
ENCODING 62
SWIDTH 437 0
DWIDTH 7 0
BBX 6 7 0 2
BITMAP
E0
10
08
04
08
30
E0
ENDCHAR
STARTCHAR 003F
ENCODING 63
SWIDTH 437 0
DWIDTH 7 0
BBX 6 11 0 0
BITMAP
78
CC
84
84
04
18
10
10
10
00
10
ENDCHAR
STARTCHAR 0040
ENCODING 64
SWIDTH 750 0
DWIDTH 12 0
BBX 11 11 0 0
BITMAP
7FC0
C060
8720
80A0
80A0
9FA0
90A0
90A0
8FE0
C000
7F80
ENDCHAR
STARTCHAR 0041
ENCODING 65
SWIDTH 437 0
DWIDTH 7 0
BBX 6 11 0 0
BITMAP
78
CC
84
84
84
FC
84
84
84
84
84
ENDCHAR
STARTCHAR 0042
ENCODING 66
SWIDTH 437 0
DWIDTH 7 0
BBX 6 11 0 0
BITMAP
F8
8C
84
84
8C
F8
8C
84
84
8C
F8
ENDCHAR
STARTCHAR 0043
ENCODING 67
SWIDTH 437 0
DWIDTH 7 0
BBX 6 11 0 0
BITMAP
78
CC
84
84
80
80
80
84
84
CC
78
ENDCHAR
STARTCHAR 0044
ENCODING 68
SWIDTH 437 0
DWIDTH 7 0
BBX 6 11 0 0
BITMAP
F8
8C
84
84
84
84
84
84
84
8C
F8
ENDCHAR
STARTCHAR 0045
ENCODING 69
SWIDTH 437 0
DWIDTH 7 0
BBX 6 11 0 0
BITMAP
FC
80
80
80
80
F0
80
80
80
80
FC
ENDCHAR
STARTCHAR 0046
ENCODING 70
SWIDTH 437 0
DWIDTH 7 0
BBX 6 11 0 0
BITMAP
FC
80
80
80
80
F0
80
80
80
80
80
ENDCHAR
STARTCHAR 0047
ENCODING 71
SWIDTH 437 0
DWIDTH 7 0
BBX 6 11 0 0
BITMAP
78
CC
84
84
80
BC
84
84
84
C4
7C
ENDCHAR
STARTCHAR 0048
ENCODING 72
SWIDTH 437 0
DWIDTH 7 0
BBX 6 11 0 0
BITMAP
84
84
84
84
84
FC
84
84
84
84
84
ENDCHAR
STARTCHAR 0049
ENCODING 73
SWIDTH 437 0
DWIDTH 7 0
BBX 7 11 0 0
BITMAP
FE
10
10
10
10
10
10
10
10
10
FE
ENDCHAR
STARTCHAR 004A
ENCODING 74
SWIDTH 437 0
DWIDTH 7 0
BBX 6 11 0 0
BITMAP
04
04
04
04
04
04
04
04
84
8C
78
ENDCHAR
STARTCHAR 004B
ENCODING 75
SWIDTH 437 0
DWIDTH 7 0
BBX 6 11 0 0
BITMAP
84
84
84
84
8C
F8
8C
84
84
84
84
ENDCHAR
STARTCHAR 004C
ENCODING 76
SWIDTH 437 0
DWIDTH 7 0
BBX 6 11 0 0
BITMAP
80
80
80
80
80
80
80
80
80
80
FC
ENDCHAR
STARTCHAR 004D
ENCODING 77
SWIDTH 625 0
DWIDTH 10 0
BBX 10 11 0 0
BITMAP
7F80
C4C0
8440
8440
8440
8440
8440
8440
8440
8440
8440
ENDCHAR
STARTCHAR 004E
ENCODING 78
SWIDTH 437 0
DWIDTH 7 0
BBX 6 11 0 0
BITMAP
78
CC
84
84
84
84
84
84
84
84
84
ENDCHAR
STARTCHAR 004F
ENCODING 79
SWIDTH 437 0
DWIDTH 7 0
BBX 6 11 0 0
BITMAP
78
CC
84
84
84
84
84
84
84
CC
78
ENDCHAR
STARTCHAR 0050
ENCODING 80
SWIDTH 437 0
DWIDTH 7 0
BBX 6 11 0 0
BITMAP
F8
8C
84
84
8C
F8
80
80
80
80
80
ENDCHAR
STARTCHAR 0051
ENCODING 81
SWIDTH 437 0
DWIDTH 7 0
BBX 6 11 0 0
BITMAP
78
CC
84
84
84
84
84
84
94
94
78
ENDCHAR
STARTCHAR 0052
ENCODING 82
SWIDTH 437 0
DWIDTH 7 0
BBX 6 11 0 0
BITMAP
F8
8C
84
84
8C
F8
8C
84
84
84
84
ENDCHAR
STARTCHAR 0053
ENCODING 83
SWIDTH 437 0
DWIDTH 7 0
BBX 6 11 0 0
BITMAP
78
CC
84
84
C0
78
0C
84
84
CC
78
ENDCHAR
STARTCHAR 0054
ENCODING 84
SWIDTH 437 0
DWIDTH 7 0
BBX 7 11 0 0
BITMAP
FE
10
10
10
10
10
10
10
10
10
10
ENDCHAR
STARTCHAR 0055
ENCODING 85
SWIDTH 437 0
DWIDTH 7 0
BBX 6 11 0 0
BITMAP
84
84
84
84
84
84
84
84
84
CC
78
ENDCHAR
STARTCHAR 0056
ENCODING 86
SWIDTH 437 0
DWIDTH 7 0
BBX 6 11 0 0
BITMAP
84
84
84
84
84
84
84
84
48
78
20
ENDCHAR
STARTCHAR 0057
ENCODING 87
SWIDTH 625 0
DWIDTH 10 0
BBX 10 11 0 0
BITMAP
8440
8440
8440
8440
8440
8440
8440
8440
8440
C4C0
7F80
ENDCHAR
STARTCHAR 0058
ENCODING 88
SWIDTH 437 0
DWIDTH 7 0
BBX 6 11 0 0
BITMAP
84
84
84
84
CC
78
CC
84
84
84
84
ENDCHAR
STARTCHAR 0059
ENCODING 89
SWIDTH 437 0
DWIDTH 7 0
BBX 6 11 0 0
BITMAP
84
84
84
84
CC
38
10
10
10
10
10
ENDCHAR
STARTCHAR 005A
ENCODING 90
SWIDTH 437 0
DWIDTH 7 0
BBX 6 11 0 0
BITMAP
FC
04
04
08
10
10
20
40
40
80
7C
ENDCHAR
STARTCHAR 005B
ENCODING 91
SWIDTH 250 0
DWIDTH 4 0
BBX 4 11 0 0
BITMAP
F0
80
80
80
80
80
80
80
80
80
F0
ENDCHAR
STARTCHAR 005C
ENCODING 92
SWIDTH 437 0
DWIDTH 7 0
BBX 6 11 0 0
BITMAP
80
40
40
20
20
10
08
08
04
04
04
ENDCHAR
STARTCHAR 005D
ENCODING 93
SWIDTH 250 0
DWIDTH 4 0
BBX 4 11 0 0
BITMAP
F0
10
10
10
10
10
10
10
10
10
F0
ENDCHAR
STARTCHAR 005E
ENCODING 94
SWIDTH 437 0
DWIDTH 7 0
BBX 6 3 0 8
BITMAP
10
6C
84
ENDCHAR
STARTCHAR 005F
ENCODING 95
SWIDTH 437 0
DWIDTH 7 0
BBX 6 1 0 -3
BITMAP
FC
ENDCHAR
STARTCHAR 0060
ENCODING 96
SWIDTH 125 0
DWIDTH 2 0
BBX 1 3 0 8
BITMAP
80
80
80
ENDCHAR
STARTCHAR 0061
ENCODING 97
SWIDTH 437 0
DWIDTH 7 0
BBX 6 6 0 0
BITMAP
38
04
04
FC
84
7C
ENDCHAR
STARTCHAR 0062
ENCODING 98
SWIDTH 437 0
DWIDTH 7 0
BBX 6 11 0 0
BITMAP
80
80
80
80
80
F8
8C
84
84
8C
F8
ENDCHAR
STARTCHAR 0063
ENCODING 99
SWIDTH 437 0
DWIDTH 7 0
BBX 6 6 0 0
BITMAP
7C
C0
80
80
C0
7C
ENDCHAR
STARTCHAR 0064
ENCODING 100
SWIDTH 437 0
DWIDTH 7 0
BBX 6 11 0 0
BITMAP
04
04
04
04
04
7C
C4
84
84
C4
7C
ENDCHAR
STARTCHAR 0065
ENCODING 101
SWIDTH 437 0
DWIDTH 7 0
BBX 6 6 0 0
BITMAP
78
84
84
FC
80
70
ENDCHAR
STARTCHAR 0066
ENCODING 102
SWIDTH 437 0
DWIDTH 7 0
BBX 6 11 0 0
BITMAP
7C
C0
80
80
80
F0
80
80
80
80
80
ENDCHAR
STARTCHAR 0067
ENCODING 103
SWIDTH 437 0
DWIDTH 7 0
BBX 6 9 0 -3
BITMAP
7C
C4
84
84
C4
7C
04
04
38
ENDCHAR
STARTCHAR 0068
ENCODING 104
SWIDTH 437 0
DWIDTH 7 0
BBX 6 11 0 0
BITMAP
80
80
80
80
80
F8
8C
84
84
84
84
ENDCHAR
STARTCHAR 0069
ENCODING 105
SWIDTH 125 0
DWIDTH 2 0
BBX 1 8 0 0
BITMAP
80
00
80
80
80
80
80
80
ENDCHAR
STARTCHAR 006A
ENCODING 106
SWIDTH 250 0
DWIDTH 4 0
BBX 4 11 0 -3
BITMAP
10
00
10
10
10
10
10
10
10
30
E0
ENDCHAR
STARTCHAR 006B
ENCODING 107
SWIDTH 437 0
DWIDTH 7 0
BBX 6 11 0 0
BITMAP
80
80
84
84
8C
F8
8C
84
84
84
84
ENDCHAR
STARTCHAR 006C
ENCODING 108
SWIDTH 125 0
DWIDTH 2 0
BBX 1 11 0 0
BITMAP
80
80
80
80
80
80
80
80
80
80
80
ENDCHAR
STARTCHAR 006D
ENCODING 109
SWIDTH 625 0
DWIDTH 10 0
BBX 10 6 0 0
BITMAP
7F80
C4C0
8440
8440
8440
8440
ENDCHAR
STARTCHAR 006E
ENCODING 110
SWIDTH 437 0
DWIDTH 7 0
BBX 6 6 0 0
BITMAP
78
CC
84
84
84
84
ENDCHAR
STARTCHAR 006F
ENCODING 111
SWIDTH 437 0
DWIDTH 7 0
BBX 6 6 0 0
BITMAP
78
CC
84
84
CC
78
ENDCHAR
STARTCHAR 0070
ENCODING 112
SWIDTH 437 0
DWIDTH 7 0
BBX 6 9 0 -3
BITMAP
F8
8C
84
84
8C
F8
80
80
80
ENDCHAR
STARTCHAR 0071
ENCODING 113
SWIDTH 437 0
DWIDTH 7 0
BBX 6 9 0 -3
BITMAP
7C
C4
84
84
C4
7C
04
04
04
ENDCHAR
STARTCHAR 0072
ENCODING 114
SWIDTH 437 0
DWIDTH 7 0
BBX 6 6 0 0
BITMAP
7C
C0
80
80
80
80
ENDCHAR
STARTCHAR 0073
ENCODING 115
SWIDTH 437 0
DWIDTH 7 0
BBX 6 6 0 0
BITMAP
7C
80
80
FC
04
F8
ENDCHAR
STARTCHAR 0074
ENCODING 116
SWIDTH 437 0
DWIDTH 7 0
BBX 7 8 0 0
BITMAP
10
10
FE
10
10
10
10
10
ENDCHAR
STARTCHAR 0075
ENCODING 117
SWIDTH 437 0
DWIDTH 7 0
BBX 6 6 0 0
BITMAP
84
84
84
84
CC
78
ENDCHAR
STARTCHAR 0076
ENCODING 118
SWIDTH 437 0
DWIDTH 7 0
BBX 6 5 0 0
BITMAP
84
84
84
48
78
ENDCHAR
STARTCHAR 0077
ENCODING 119
SWIDTH 625 0
DWIDTH 10 0
BBX 10 6 0 0
BITMAP
8440
8440
8440
8440
C4C0
7F80
ENDCHAR
STARTCHAR 0078
ENCODING 120
SWIDTH 437 0
DWIDTH 7 0
BBX 6 6 0 0
BITMAP
84
84
48
78
CC
84
ENDCHAR
STARTCHAR 0079
ENCODING 121
SWIDTH 437 0
DWIDTH 7 0
BBX 6 9 0 -3
BITMAP
84
84
84
84
C4
7C
04
04
38
ENDCHAR
STARTCHAR 007A
ENCODING 122
SWIDTH 437 0
DWIDTH 7 0
BBX 6 6 0 0
BITMAP
FC
04
08
30
C0
7C
ENDCHAR
STARTCHAR 007B
ENCODING 123
SWIDTH 312 0
DWIDTH 5 0
BBX 5 11 0 0
BITMAP
38
60
40
40
40
C0
40
40
40
60
38
ENDCHAR
STARTCHAR 007C
ENCODING 124
SWIDTH 125 0
DWIDTH 2 0
BBX 1 16 0 -3
BITMAP
80
80
80
80
80
80
80
80
80
80
80
80
80
80
80
80
ENDCHAR
STARTCHAR 007D
ENCODING 125
SWIDTH 312 0
DWIDTH 5 0
BBX 5 11 0 0
BITMAP
60
10
10
10
10
18
10
10
10
30
E0
ENDCHAR
STARTCHAR 007E
ENCODING 126
SWIDTH 437 0
DWIDTH 7 0
BBX 6 3 0 4
BITMAP
64
A4
98
ENDCHAR
STARTCHAR 00C6
ENCODING 198
SWIDTH 625 0
DWIDTH 10 0
BBX 10 11 0 0
BITMAP
7FC0
C400
8400
8400
8400
FF80
8400
8400
8400
8400
87C0
ENDCHAR
STARTCHAR 00E6
ENCODING 230
SWIDTH 625 0
DWIDTH 10 0
BBX 9 6 1 0
BITMAP
7700
0880
0880
FF80
8800
FF00
ENDCHAR
STARTCHAR E000
ENCODING 57344
SWIDTH 0 0
DWIDTH 0 0
BBX 0 0 0 0
BITMAP
ENDCHAR
STARTCHAR E001
ENCODING 57345
SWIDTH 500 0
DWIDTH 8 0
BBX 0 0 0 0
BITMAP
ENDCHAR
ENDFONT
